<svg width="32" height="32" viewBox="0 0 32 32" fill="none" xmlns="http://www.w3.org/2000/svg">
  <rect width="32" height="32" rx="6" fill="url(#gradient)"/>
  <rect x="6" y="6" width="20" height="20" rx="2" fill="white" fill-opacity="0.9"/>

  <!-- Grid lines -->
  <line x1="6" y1="12" x2="26" y2="12" stroke="#667eea" stroke-width="0.5" opacity="0.3"/>
  <line x1="6" y1="18" x2="26" y2="18" stroke="#667eea" stroke-width="0.5" opacity="0.3"/>
  <line x1="12" y1="6" x2="12" y2="26" stroke="#667eea" stroke-width="0.5" opacity="0.3"/>
  <line x1="18" y1="6" x2="18" y2="26" stroke="#667eea" stroke-width="0.5" opacity="0.3"/>

  <!-- Chart bars -->
  <rect x="8" y="16" width="2" height="8" fill="#667eea" rx="1"/>
  <rect x="11" y="14" width="2" height="10" fill="#764ba2" rx="1"/>
  <rect x="14" y="18" width="2" height="6" fill="#667eea" rx="1"/>
  <rect x="17" y="12" width="2" height="12" fill="#764ba2" rx="1"/>
  <rect x="20" y="15" width="2" height="9" fill="#667eea" rx="1"/>
  <rect x="23" y="13" width="2" height="11" fill="#764ba2" rx="1"/>

  <defs>
    <linearGradient id="gradient" x1="0%" y1="0%" x2="100%" y2="100%">
      <stop offset="0%" style="stop-color:#667eea;stop-opacity:1" />
      <stop offset="100%" style="stop-color:#764ba2;stop-opacity:1" />
    </linearGradient>
  </defs>
</svg>
